PathFileType	4	(x/y/z)	S06_P20_T62
DataRate	CameraRate	NumFrames	NumMarkers	Units	OrigDataRate	OrigDataStartFrame	OrigNumFrames
240	240	11	51	mm	240	304	347
Frame#	Time	Sternum			R.Acromium			L.Acromium			Top.Head			R.ASIS			L.ASIS			R.PSIS			L.PSIS			R.Great.Tro			L.Great.Tro			R.Iliac.Crest			L.Iliac.Crest			V.Sacral			R.Thigh.Upper.Post			R.Thigh.Lower.Ant			R.Thigh.Lower.Post			R.Thigh.Upper.Ant			R.Knee.Lat			R.Knee.Med			R.Shank.Upper.Post			R.Shank.Lower.Ant			R.Shank.Lower.Post			R.Shank.Upper.Ant			R.Ankle.Lat			R.Ankle.Med			R.Heel.Upper			R.Heel.Med			R.Heel.Lat			R.Toe.Lat			R.Toe.Med			R.Toe.Tip			L.Thigh.Upper.Post			L.Thigh.Lower.Ant			L.Thigh.Lower.Post			L.Thigh.Upper.Ant			L.Knee.Lat			L.Knee.Med			L.Shank.Upper.Post			L.Shank.Lower.Ant			L.Shank.Lower.Post			L.Shank.Upper.Ant			L.Ankle.Lat			L.Ankle.Med			L.Heel.Upper			L.Heel.Med			L.Heel.Lat			L.Toe.Lat			L.Toe.Med			L.Toe.Tip			Cervical.Spine			Back			
		X1	Y1	Z1	X2	Y2	Z2	X3	Y3	Z3	X4	Y4	Z4	X5	Y5	Z5	X6	Y6	Z6	X7	Y7	Z7	X8	Y8	Z8	X9	Y9	Z9	X10	Y10	Z10	X11	Y11	Z11	X12	Y12	Z12	X13	Y13	Z13	X14	Y14	Z14	X15	Y15	Z15	X16	Y16	Z16	X17	Y17	Z17	X18	Y18	Z18	X19	Y19	Z19	X20	Y20	Z20	X21	Y21	Z21	X22	Y22	Z22	X23	Y23	Z23	X24	Y24	Z24	X25	Y25	Z25	X26	Y26	Z26	X27	Y27	Z27	X28	Y28	Z28	X29	Y29	Z29	X30	Y30	Z30	X31	Y31	Z31	X32	Y32	Z32	X33	Y33	Z33	X34	Y34	Z34	X35	Y35	Z35	X36	Y36	Z36	X37	Y37	Z37	X38	Y38	Z38	X39	Y39	Z39	X40	Y40	Z40	X41	Y41	Z41	X42	Y42	Z42	X43	Y43	Z43	X44	Y44	Z44	X45	Y45	Z45	X46	Y46	Z46	X47	Y47	Z47	X48	Y48	Z48	X49	Y49	Z49	X50	Y50	Z50	X51	Y51	Z51	

304	1.2625	359.14	1287.3	348.87	231.88	1499.9	510.37	244.37	1496.9	157.28	235.82	1814.4	325.97	290.93	1057.2	467.75	308.09	1047.5	215.74	99.914	1080.2	364.8	104.5	1084.5	284.14	241.5	990.57	515.76	212.79	984.6	156.94	207.69	1132.8	493.72	246.1	1125.2	176.5	87.544	1048	326.12	337.04	756.91	504.53	415.7	701.56	466.39	356	670.91	484.33	397.02	789.75	479.42	416.18	577.62	472.62	411.46	577.91	344.41	394.93	349.72	479.44	460.23	291.79	459.84	398.09	272.68	466.82	456.83	367.49	471.86	446	138.56	448.29	464.97	144.43	359.22	388.96	84.378	394.39	406.3	56.05	365.59	401.46	56.494	430.06	572.82	84.729	481.1	602.42	97.635	365.72	660.22	127.47	414.2	251.57	717.69	189.1	290.76	637.93	254.35	224.96	632.83	210.06	312.4	726.73	227.77	196.97	538.95	231.67	222.16	548.87	351.32	107.68	322.84	248.18	158.81	250.15	256.11	88.399	254.16	268.68	173.69	318.43	241.68	105.41	108.85	274.85	110.46	113.78	365.47	23.007	75.103	316.17	25.478	46.964	347.75	29.314	50.495	285.93	209.23	42.387	252.47	225.55	44.011	372.91	300.26	51.735	321.78	180.82	1551.9	331.94	119.49	1282.5	326.91
305	1.2667	364.64	1286.9	348.93	237.07	1499.3	510.41	249.88	1496.6	157.33	241.09	1814	326.16	296.49	1056.7	467.81	313.52	1046.8	215.79	105.53	1079.8	365.08	109.98	1084	284.35	246.93	990.13	515.93	218	984.04	157.17	213.27	1132.5	493.84	251.63	1124.5	176.59	93.063	1047.5	326.42	341.13	755.81	504.9	419.49	700.15	466.58	359.68	669.76	484.49	401.23	788.42	479.7	419.94	576.48	472.53	414.8	576.64	344.28	402.72	348.04	478.99	469.13	291.35	459.26	407.3	271.03	466.15	464.29	366.97	471.4	458.29	137.28	447.31	476.66	144.4	358.31	401.96	82.273	393.55	419.81	54.593	364.36	415.44	54.282	428.88	586.63	85.703	478.85	614.97	100.7	363.39	672.5	131.27	411.8	255.37	717.19	189.29	294.22	637.18	254.47	228.33	632.46	210.26	316.34	725.88	227.82	199.78	538.65	231.83	225.18	548.4	351.51	109.19	323.05	248.41	159.89	250.07	256.25	89.54	254.5	268.92	175.16	318.25	241.82	105.7	109.02	275.08	110.78	113.86	365.66	23.114	75.225	316.42	25.544	47.047	347.94	29.365	50.683	286.12	209.28	42.449	252.58	225.66	43.765	373.07	300.41	51.325	321.91	186.16	1551.4	331.95	124.96	1282	326.84
306	1.2708	370.14	1286.4	349	242.26	1498.8	510.46	255.38	1496.2	157.38	246.36	1813.5	326.36	302.05	1056.3	467.88	318.97	1046.1	215.85	111.17	1079.3	365.36	115.46	1083.5	284.58	252.34	989.66	516.11	223.24	983.46	157.4	218.86	1132.1	493.98	257.16	1123.9	176.68	98.595	1047.1	326.72	345.24	754.7	505.28	423.31	698.76	466.79	363.38	668.61	484.64	405.45	787.09	480.03	423.7	575.34	472.44	418.2	575.41	344.13	410.2	346.43	478.49	477.65	290.92	458.68	416.12	269.47	465.43	471.45	366.45	470.94	470.02	136.11	446.32	487.77	144.44	357.37	414.37	80.327	392.67	432.7	53.285	363.1	428.8	52.243	427.66	599.79	86.702	476.59	626.85	103.74	361.07	684.11	134.98	409.4	259.23	716.67	189.46	297.76	636.42	254.52	231.78	632.08	210.43	320.34	725.02	227.83	202.68	538.35	231.97	228.32	547.9	351.66	110.76	323.28	248.63	161.02	250	256.37	90.725	254.86	269.15	176.69	318.07	241.95	105.99	109.21	275.32	111.11	113.97	365.85	23.224	75.37	316.68	25.613	47.154	348.14	29.416	50.888	286.33	209.33	42.508	252.7	225.78	43.529	373.22	300.56	50.909	322.03	191.5	1550.9	331.96	130.44	1281.4	326.78
307	1.275	375.66	1285.9	349.07	247.47	1498.2	510.51	260.87	1495.7	157.43	251.62	1813	326.55	307.62	1055.8	467.97	324.44	1045.4	215.93	116.85	1078.9	365.66	120.95	1082.9	284.81	257.72	989.16	516.31	228.5	982.88	157.64	224.46	1131.7	494.13	262.7	1123.2	176.8	104.14	1046.7	327.03	349.38	753.59	505.65	427.18	697.39	467	367.14	667.47	484.78	409.7	785.76	480.4	427.46	574.19	472.34	421.7	574.22	343.98	417.37	344.9	477.94	485.76	290.49	458.09	424.52	268	464.65	478.31	365.91	470.48	481.17	135.03	445.31	498.31	144.51	356.41	426.17	78.525	391.76	444.94	52.102	361.82	441.51	50.361	426.41	612.27	87.7	474.33	638.03	106.71	358.77	695.05	138.58	407.02	263.14	716.16	189.61	301.39	635.65	254.53	235.3	631.68	210.58	324.4	724.16	227.8	205.68	538.03	232.1	231.6	547.39	351.78	112.39	323.54	248.85	162.18	249.94	256.48	91.956	255.26	269.38	178.27	317.9	242.06	106.3	109.43	275.55	111.47	114.12	366.04	23.34	75.543	316.95	25.688	47.291	348.36	29.466	51.117	286.55	209.38	42.564	252.82	225.9	43.305	373.37	300.72	50.486	322.16	196.84	1550.4	331.99	135.93	1280.8	326.75
308	1.2792	381.18	1285.5	349.16	252.68	1497.6	510.57	266.35	1495.3	157.5	256.88	1812.5	326.75	313.19	1055.2	468.07	329.92	1044.7	216.03	122.55	1078.4	365.96	126.45	1082.3	285.05	263.09	988.65	516.52	233.79	982.29	157.88	230.06	1131.2	494.29	268.25	1122.5	176.92	109.69	1046.2	327.35	353.56	752.48	506.02	431.1	696.04	467.22	370.94	666.35	484.89	414	784.46	480.8	431.25	573.05	472.22	425.31	573.08	343.81	424.22	343.44	477.34	493.48	290.05	457.5	432.51	266.61	463.81	484.88	365.34	470.01	491.71	134.02	444.28	508.24	144.6	355.43	437.33	76.854	390.81	456.49	51.025	360.52	453.54	48.625	425.14	624.05	88.667	472.09	648.52	109.55	356.5	705.31	142	404.68	267.1	715.64	189.73	305.12	634.87	254.5	238.9	631.28	210.71	328.54	723.31	227.73	208.78	537.71	232.2	235.01	546.86	351.88	114.09	323.83	249.07	163.39	249.9	256.57	93.238	255.7	269.62	179.91	317.75	242.15	106.62	109.67	275.78	111.85	114.31	366.23	23.463	75.752	317.24	25.77	47.466	348.6	29.518	51.375	286.79	209.43	42.618	252.96	226.02	43.092	373.52	300.88	50.058	322.28	202.19	1549.8	332.02	141.43	1280.2	326.73
309	1.2833	386.71	1285	349.26	257.9	1497.1	510.64	271.82	1494.9	157.57	262.14	1812	326.94	318.77	1054.7	468.2	335.42	1044	216.15	128.28	1077.9	366.27	131.97	1081.7	285.3	268.44	988.12	516.74	239.1	981.71	158.12	235.67	1130.8	494.46	273.81	1121.9	177.06	115.26	1045.7	327.67	357.77	751.38	506.36	435.08	694.73	467.43	374.8	665.24	484.96	418.34	783.17	481.24	435.06	571.91	472.09	429.04	572	343.63	430.76	342.04	476.68	500.8	289.58	456.89	440.07	265.29	462.93	491.16	364.74	469.54	501.62	133.06	443.24	517.56	144.67	354.44	447.82	75.3	389.83	467.33	50.033	359.2	464.86	47.019	423.84	635.09	89.574	469.88	658.3	112.23	354.28	714.88	145.2	402.39	271.12	715.12	189.83	308.96	634.08	254.41	242.6	630.87	210.81	332.74	722.45	227.62	211.98	537.37	232.28	238.56	546.31	351.95	115.86	324.14	249.28	164.65	249.88	256.65	94.578	256.18	269.85	181.63	317.6	242.23	106.96	109.94	276.01	112.27	114.54	366.41	23.596	76.005	317.55	25.86	47.688	348.85	29.574	51.671	287.05	209.49	42.67	253.1	226.15	42.892	373.67	301.05	49.627	322.39	207.54	1549.3	332.06	146.93	1279.5	326.74
310	1.2875	392.26	1284.5	349.36	263.14	1496.5	510.73	277.28	1494.5	157.64	267.4	1811.5	327.13	324.35	1054.1	468.34	340.93	1043.3	216.28	134.04	1077.4	366.58	137.49	1081.1	285.56	273.78	987.57	516.98	244.43	981.12	158.37	241.28	1130.3	494.65	279.38	1121.2	177.21	120.84	1045.2	327.98	362.03	750.29	506.67	439.13	693.44	467.63	378.73	664.14	484.99	422.74	781.91	481.72	438.9	570.78	471.94	432.91	571	343.43	436.98	340.69	475.98	507.71	289.06	456.28	447.21	264.02	462	497.16	364.1	469.05	510.89	132.14	442.19	526.27	144.71	353.42	457.63	73.851	388.82	477.45	49.106	357.88	475.43	45.532	422.53	645.38	90.392	467.72	667.37	114.7	352.12	723.77	148.15	400.16	275.21	714.6	189.91	312.89	633.29	254.29	246.38	630.45	210.9	337.01	721.61	227.48	215.3	537.03	232.35	242.25	545.74	352	117.72	324.49	249.5	165.96	249.88	256.71	95.98	256.7	270.07	183.41	317.47	242.29	107.32	110.24	276.23	112.71	114.81	366.6	23.743	76.313	317.87	25.961	47.966	349.13	29.635	52.013	287.32	209.54	42.719	253.24	226.29	42.705	373.82	301.21	49.195	322.51	212.89	1548.8	332.1	152.44	1278.9	326.76
311	1.2917	397.8	1284	349.48	268.38	1495.9	510.81	282.73	1494	157.73	272.66	1811	327.32	329.94	1053.6	468.51	346.45	1042.5	216.44	139.82	1076.9	366.89	143.02	1080.5	285.81	279.11	987.02	517.24	249.79	980.54	158.62	246.89	1129.8	494.84	284.96	1120.5	177.38	126.42	1044.7	328.29	366.33	749.22	506.93	443.25	692.19	467.82	382.72	663.07	484.97	427.19	780.67	482.22	442.78	569.66	471.77	436.93	570.07	343.22	442.9	339.39	475.23	514.23	288.5	455.65	453.93	262.8	461.03	502.89	363.41	468.54	519.51	131.24	441.13	534.36	144.69	352.39	466.75	72.495	387.77	486.83	48.229	356.55	485.25	44.151	421.21	654.91	91.091	465.61	675.75	116.92	350.03	731.98	150.79	398.01	279.38	714.09	189.98	316.95	632.51	254.12	250.28	630.02	210.96	341.37	720.78	227.32	218.75	536.69	232.39	246.09	545.16	352.02	119.66	324.88	249.7	167.34	249.91	256.76	97.451	257.26	270.3	185.28	317.35	242.34	107.69	110.58	276.45	113.2	115.14	366.78	23.907	76.687	318.2	26.075	48.314	349.42	29.705	52.413	287.61	209.6	42.767	253.4	226.43	42.534	373.97	301.39	48.764	322.62	218.24	1548.2	332.16	157.95	1278.3	326.8
312	1.2958	403.36	1283.6	349.62	273.64	1495.3	510.91	288.18	1493.6	157.83	277.92	1810.5	327.52	335.55	1053	468.7	351.99	1041.8	216.62	145.64	1076.4	367.2	148.56	1079.9	286.07	284.44	986.45	517.5	255.17	979.96	158.86	252.5	1129.3	495.05	290.55	1119.8	177.55	132.02	1044.2	328.6	370.67	748.16	507.14	447.45	690.97	468	386.78	662.03	484.9	431.71	779.45	482.74	446.71	568.56	471.57	441.1	569.22	343	448.52	338.14	474.44	520.37	287.88	455	460.24	261.62	460.02	508.35	362.66	468.01	527.48	130.36	440.06	541.84	144.59	351.34	475.17	71.224	386.68	495.47	47.387	355.21	494.3	42.866	419.87	663.68	91.645	463.57	683.44	118.86	348.02	739.52	153.1	395.95	283.63	713.58	190.03	321.12	631.73	253.93	254.29	629.59	210.99	345.81	719.97	227.13	222.33	536.33	232.42	250.08	544.56	352.02	121.7	325.3	249.91	168.78	249.96	256.8	98.999	257.88	270.52	187.24	317.26	242.37	108.09	110.97	276.66	113.73	115.52	366.95	24.094	77.14	318.54	26.205	48.743	349.72	29.788	52.881	287.91	209.66	42.813	253.56	226.58	42.379	374.11	301.56	48.335	322.74	223.6	1547.7	332.23	163.47	1277.6	326.85
313	1.3	408.92	1283.1	349.76	278.92	1494.7	511.02	293.62	1493.1	157.94	283.18	1810	327.71	341.16	1052.4	468.91	357.55	1041.2	216.81	151.48	1075.8	367.51	154.11	1079.2	286.33	289.77	985.88	517.77	260.59	979.38	159.1	258.11	1128.8	495.26	296.16	1119.2	177.73	137.63	1043.6	328.9	375.07	747.11	507.3	451.72	689.77	468.16	390.9	661	484.76	436.29	778.25	483.28	450.68	567.46	471.35	445.43	568.44	342.77	453.86	336.92	473.62	526.13	287.19	454.32	466.14	260.48	458.99	513.56	361.85	467.45	534.79	129.47	438.98	548.71	144.4	350.28	482.89	70.032	385.57	503.36	46.568	353.87	502.57	41.666	418.53	671.69	92.03	461.59	690.46	120.48	346.09	746.42	155.04	393.97	287.98	713.08	190.06	325.43	630.96	253.7	258.43	629.15	211.01	350.35	719.18	226.93	226.05	535.97	232.42	254.23	543.95	351.99	123.84	325.77	250.1	170.3	250.04	256.82	100.63	258.55	270.74	189.29	317.19	242.38	108.52	111.41	276.86	114.3	115.97	367.12	24.31	77.684	318.88	26.355	49.269	350.04	29.888	53.431	288.22	209.73	42.858	253.72	226.73	42.243	374.26	301.74	47.912	322.85	228.96	1547.1	332.31	168.99	1277	326.93
314	1.3042	414.48	1282.6	349.93	284.2	1494.1	511.14	299.05	1492.7	158.06	288.45	1809.4	327.9	346.79	1051.8	469.13	363.12	1040.5	217.02	157.33	1075.3	367.82	159.68	1078.6	286.58	295.12	985.31	518.04	266.03	978.82	159.33	263.73	1128.3	495.49	301.78	1118.5	177.92	143.25	1043.1	329.19	379.51	746.08	507.4	456.07	688.6	468.3	395.08	660	484.57	440.93	777.06	483.83	454.71	566.38	471.11	449.92	567.72	342.54	458.93	335.73	472.78	531.54	286.42	453.63	471.66	259.35	457.95	518.53	360.98	466.87	541.47	128.57	437.89	555	144.12	349.19	489.91	68.913	384.43	510.51	45.763	352.55	510.06	40.546	417.2	678.95	92.225	459.69	696.83	121.77	344.24	752.69	156.59	392.07	292.43	712.58	190.08	329.87	630.2	253.44	262.7	628.7	210.99	354.98	718.41	226.7	229.94	535.61	232.4	258.54	543.33	351.94	126.09	326.28	250.29	171.89	250.17	256.83	102.36	259.28	270.94	191.45	317.14	242.37	108.99	111.9	277.05	114.93	116.48	367.28	24.565	78.335	319.21	26.53	49.907	350.36	30.013	54.076	288.54	209.81	42.902	253.89	226.89	42.127	374.4	301.93	47.495	322.96	234.32	1546.6	332.4	174.52	1276.3	327.02
